<svg width="24" height="24" viewBox="0 0 24 24" fill="none" xmlns="http://www.w3.org/2000/svg">
<g clip-path="url(#clip0_126_125)">
<path d="M23.5 6.50708C23.3641 6.02231 23.0994 5.58342 22.734 5.23708C22.3583 4.88008 21.8978 4.62471 21.396 4.49508C19.518 4.00008 11.994 4.00008 11.994 4.00008C8.85734 3.96439 5.72144 4.12135 2.60401 4.47008C2.1022 4.60929 1.64257 4.87036 1.26601 5.23008C0.896007 5.58608 0.628007 6.02508 0.488007 6.50608C0.1517 8.31782 -0.0117011 10.1574 6.83166e-06 12.0001C-0.0119932 13.8411 0.151007 15.6801 0.488007 17.4941C0.625007 17.9731 0.892007 18.4101 1.26301 18.7631C1.63401 19.1161 2.09601 19.3711 2.60401 19.5061C4.50701 20.0001 11.994 20.0001 11.994 20.0001C15.1347 20.0358 18.2746 19.8789 21.396 19.5301C21.8978 19.4004 22.3583 19.1451 22.734 18.7881C23.0993 18.4418 23.3637 18.0029 23.499 17.5181C23.8441 15.707 24.0119 13.8667 24 12.0231C24.026 10.1717 23.8584 8.32264 23.5 6.50608V6.50708ZM9.60201 15.4241V8.57708L15.862 12.0011L9.60201 15.4241Z" fill="white"/>
</g>
<defs>
<clipPath id="clip0_126_125">
<rect width="24" height="24" fill="white"/>
</clipPath>
</defs>
</svg>
