<svg width="567" height="693" viewBox="0 0 567 693" fill="none" xmlns="http://www.w3.org/2000/svg">
<path d="M383.844 61.4095L185.957 60.6861C155.179 60.5736 130.139 85.7408 130.028 116.899L128.395 574.68C128.284 605.838 153.144 631.187 183.921 631.3L381.809 632.023C412.586 632.136 437.626 606.968 437.737 575.811L439.37 118.029C439.481 86.8716 414.621 61.522 383.844 61.4095Z" fill="#3F3D56"/>
<path d="M383.825 66.6928L357.947 66.5982L357.915 75.6485C357.9 79.745 356.279 83.6678 353.407 86.5539C350.535 89.4401 346.649 91.0532 342.603 91.0384L226.986 90.6159C222.939 90.6011 219.065 88.9595 216.214 86.0525C213.363 83.1454 211.769 79.2108 211.784 75.1144L211.816 66.064L185.938 65.9694C172.547 65.9359 159.69 71.2811 150.186 80.8324C140.683 90.3837 135.311 103.361 135.247 116.918L133.614 574.699C133.581 588.255 138.861 601.272 148.296 610.892C157.73 620.513 170.55 625.952 183.941 626.016L381.827 626.739C395.219 626.773 408.076 621.428 417.579 611.877C427.082 602.325 432.455 589.348 432.518 575.791L434.151 118.01C434.184 104.454 428.904 91.4373 419.47 81.8168C410.035 72.1962 397.216 66.7572 383.825 66.6928V66.6928Z" fill="white"/>
<path d="M128.393 176.233C127.387 176.228 126.424 175.819 125.715 175.096C125.006 174.373 124.609 173.395 124.611 172.377L124.639 164.692C124.64 164.187 124.74 163.688 124.933 163.222C125.125 162.757 125.406 162.334 125.76 161.979C126.114 161.623 126.533 161.342 126.994 161.15C127.456 160.959 127.95 160.861 128.448 160.863C128.946 160.865 129.44 160.966 129.899 161.161C130.359 161.356 130.777 161.64 131.128 161.998C131.479 162.356 131.757 162.781 131.946 163.248C132.135 163.715 132.232 164.215 132.23 164.719L132.203 172.404C132.198 173.423 131.794 174.398 131.08 175.116C130.366 175.834 129.399 176.236 128.393 176.233V176.233Z" fill="#3F3D56"/>
<path d="M128.253 215.639C127.246 215.634 126.283 215.226 125.574 214.503C124.865 213.78 124.468 212.802 124.471 211.783L124.546 190.628C124.548 190.124 124.648 189.624 124.84 189.159C125.033 188.693 125.314 188.271 125.667 187.915C126.021 187.56 126.441 187.278 126.902 187.087C127.363 186.896 127.857 186.798 128.355 186.8C128.854 186.802 129.347 186.903 129.807 187.098C130.267 187.292 130.684 187.577 131.035 187.935C131.387 188.293 131.665 188.718 131.854 189.185C132.043 189.652 132.139 190.152 132.137 190.656L132.062 211.811C132.057 212.829 131.653 213.805 130.939 214.522C130.225 215.24 129.259 215.642 128.253 215.639V215.639Z" fill="#3F3D56"/>
<path d="M128.14 247.32C127.133 247.315 126.17 246.906 125.461 246.183C124.752 245.46 124.355 244.482 124.358 243.463L124.433 222.309C124.437 221.29 124.84 220.314 125.555 219.596C126.269 218.878 127.236 218.476 128.243 218.48C129.249 218.484 130.213 218.892 130.922 219.615C131.632 220.339 132.028 221.317 132.024 222.337L131.949 243.491C131.944 244.51 131.54 245.485 130.826 246.203C130.112 246.921 129.146 247.322 128.14 247.32V247.32Z" fill="#3F3D56"/>
<path d="M439.441 231.166C438.435 231.161 437.471 230.752 436.762 230.029C436.053 229.306 435.657 228.328 435.659 227.309L435.843 175.692C435.847 174.673 436.25 173.697 436.965 172.979C437.679 172.261 438.646 171.859 439.653 171.863C440.659 171.867 441.623 172.275 442.332 172.998C443.042 173.721 443.438 174.7 443.435 175.719L443.25 227.337C443.246 228.356 442.842 229.331 442.128 230.049C441.414 230.767 440.447 231.168 439.441 231.166Z" fill="#3F3D56"/>
<path d="M199.956 188.221C199.605 188.22 199.268 188.088 199.008 187.85L183.835 173.988C183.696 173.862 183.583 173.708 183.503 173.537C183.423 173.367 183.376 173.181 183.367 172.992C183.357 172.803 183.385 172.614 183.447 172.436C183.51 172.258 183.606 172.094 183.732 171.953L197.424 156.593C197.55 156.452 197.701 156.338 197.87 156.257C198.039 156.175 198.222 156.129 198.408 156.119C198.595 156.109 198.782 156.137 198.958 156.2C199.134 156.264 199.296 156.362 199.435 156.488C199.573 156.615 199.686 156.768 199.766 156.939C199.847 157.11 199.893 157.295 199.903 157.484C199.912 157.673 199.885 157.862 199.822 158.041C199.76 158.219 199.663 158.383 199.538 158.523L186.799 172.814L200.915 185.711C201.129 185.906 201.279 186.163 201.346 186.447C201.413 186.731 201.393 187.028 201.289 187.3C201.185 187.572 201.002 187.806 200.764 187.971C200.526 188.135 200.244 188.223 199.956 188.221L199.956 188.221Z" fill="#E7D215"/>
<path d="M210.862 188.223C210.569 188.222 210.284 188.13 210.045 187.959C209.806 187.788 209.625 187.547 209.526 187.268C209.428 186.989 209.416 186.686 209.494 186.401C209.571 186.115 209.734 185.86 209.959 185.672L224.611 173.402L212.492 158.569C212.372 158.423 212.282 158.255 212.227 158.074C212.172 157.893 212.152 157.703 212.17 157.514C212.187 157.325 212.241 157.142 212.329 156.975C212.416 156.807 212.536 156.659 212.68 156.538C212.824 156.417 212.99 156.326 213.169 156.271C213.348 156.215 213.536 156.196 213.723 156.214C213.909 156.232 214.09 156.287 214.255 156.376C214.42 156.465 214.567 156.586 214.686 156.733L227.712 172.676C227.831 172.822 227.921 172.99 227.976 173.171C228.031 173.352 228.05 173.542 228.032 173.73C228.015 173.919 227.96 174.102 227.873 174.269C227.785 174.436 227.666 174.584 227.522 174.705L211.773 187.892C211.517 188.107 211.195 188.224 210.862 188.223Z" fill="#E7D215"/>
<path d="M399.328 208.445L173.22 207.618C169.734 207.601 166.396 206.185 163.94 203.68C161.484 201.176 160.109 197.787 160.118 194.257L160.276 149.796C160.293 146.267 161.691 142.888 164.166 140.401C166.64 137.914 169.987 136.523 173.474 136.532L399.581 137.358C403.068 137.375 406.405 138.791 408.862 141.296C411.318 143.8 412.693 147.189 412.684 150.719L412.525 195.18C412.509 198.709 411.11 202.088 408.636 204.575C406.162 207.062 402.814 208.453 399.328 208.445ZM173.467 138.453C170.484 138.445 167.619 139.636 165.502 141.764C163.385 143.892 162.188 146.783 162.174 149.803L162.015 194.264C162.008 197.284 163.184 200.184 165.286 202.327C167.388 204.471 170.244 205.682 173.227 205.697L399.335 206.523C402.318 206.531 405.182 205.34 407.299 203.212C409.417 201.084 410.613 198.193 410.628 195.173L410.786 150.712C410.794 147.692 409.617 144.792 407.515 142.649C405.413 140.505 402.558 139.294 399.574 139.279L173.467 138.453Z" fill="#3F3D56"/>
<path d="M293.885 165.79L255.929 165.652C254.922 165.648 253.958 165.24 253.249 164.516C252.54 163.793 252.144 162.814 252.147 161.795C252.151 160.776 252.554 159.8 253.269 159.082C253.983 158.364 254.95 157.963 255.956 157.967L293.913 158.105C294.919 158.109 295.883 158.517 296.592 159.241C297.302 159.964 297.698 160.943 297.694 161.962C297.691 162.981 297.287 163.957 296.573 164.675C295.859 165.393 294.892 165.794 293.885 165.79V165.79Z" fill="#E6E6E6"/>
<path d="M375.415 187.223L254.905 186.782C253.898 186.778 252.934 186.37 252.225 185.647C251.516 184.924 251.119 183.945 251.123 182.926C251.127 181.907 251.53 180.931 252.244 180.213C252.959 179.495 253.926 179.093 254.932 179.097L375.443 179.538C376.449 179.541 377.413 179.95 378.123 180.673C378.832 181.396 379.228 182.375 379.225 183.394C379.221 184.413 378.818 185.389 378.103 186.107C377.389 186.825 376.422 187.226 375.415 187.223V187.223Z" fill="#E6E6E6"/>
<path d="M197.795 491.894C197.445 491.893 197.107 491.761 196.847 491.523L181.674 477.661C181.535 477.534 181.422 477.381 181.342 477.21C181.262 477.039 181.216 476.854 181.206 476.665C181.197 476.476 181.224 476.287 181.286 476.108C181.349 475.93 181.446 475.766 181.571 475.626L195.264 460.265C195.517 459.981 195.87 459.811 196.247 459.791C196.624 459.772 196.994 459.905 197.274 460.161C197.554 460.417 197.723 460.775 197.742 461.157C197.761 461.538 197.63 461.912 197.377 462.196L184.638 476.487L198.754 489.383C198.968 489.579 199.119 489.835 199.185 490.119C199.252 490.403 199.232 490.701 199.128 490.973C199.024 491.245 198.841 491.478 198.603 491.643C198.365 491.807 198.083 491.895 197.795 491.894Z" fill="#E7D215"/>
<path d="M208.701 491.896C208.408 491.895 208.123 491.803 207.884 491.632C207.645 491.461 207.464 491.22 207.365 490.941C207.267 490.662 207.255 490.359 207.333 490.074C207.41 489.788 207.572 489.533 207.798 489.344L222.45 477.075L210.331 462.241C210.091 461.946 209.976 461.567 210.012 461.187C210.048 460.807 210.231 460.457 210.522 460.214C210.813 459.97 211.187 459.854 211.562 459.89C211.938 459.925 212.284 460.111 212.525 460.405L225.551 476.349C225.792 476.643 225.907 477.022 225.871 477.403C225.836 477.783 225.653 478.134 225.362 478.377L209.613 491.565C209.356 491.78 209.034 491.897 208.701 491.896V491.896Z" fill="#E7D215"/>
<path d="M398.033 571.562L171.925 570.735C168.439 570.718 165.101 569.302 162.645 566.798C160.188 564.293 158.814 560.904 158.822 557.374L159.231 442.787C159.248 439.258 160.646 435.879 163.121 433.392C165.595 430.906 168.942 429.514 172.429 429.523L398.536 430.349C402.023 430.366 405.36 431.782 407.817 434.287C410.273 436.792 411.648 440.181 411.639 443.71L411.23 558.297C411.214 561.826 409.815 565.205 407.341 567.692C404.867 570.179 401.519 571.57 398.033 571.562V571.562ZM172.422 431.444C169.439 431.436 166.574 432.627 164.457 434.755C162.34 436.883 161.143 439.774 161.129 442.794L160.72 557.381C160.713 560.401 161.889 563.301 163.991 565.445C166.093 567.588 168.949 568.8 171.932 568.814L398.039 569.64C401.023 569.648 403.887 568.457 406.004 566.329C408.121 564.201 409.318 561.31 409.333 558.29L409.741 443.703C409.749 440.683 408.572 437.783 406.47 435.64C404.369 433.497 401.513 432.285 398.529 432.271L172.422 431.444Z" fill="#3F3D56"/>
<path d="M291.724 469.463L253.768 469.324C253.269 469.323 252.775 469.222 252.315 469.028C251.855 468.833 251.436 468.549 251.085 468.191C250.733 467.833 250.454 467.408 250.265 466.94C250.076 466.473 249.979 465.973 249.981 465.468C249.983 464.963 250.083 464.463 250.275 463.997C250.468 463.531 250.75 463.108 251.104 462.753C251.458 462.397 251.879 462.116 252.34 461.925C252.802 461.734 253.297 461.636 253.796 461.639L291.752 461.778C292.757 461.783 293.72 462.192 294.428 462.915C295.136 463.638 295.532 464.616 295.528 465.634C295.524 466.652 295.122 467.627 294.409 468.345C293.695 469.063 292.73 469.465 291.724 469.463Z" fill="#E6E6E6"/>
<path d="M373.255 490.895L252.744 490.454C252.245 490.453 251.752 490.352 251.291 490.158C250.831 489.963 250.413 489.679 250.061 489.321C249.71 488.963 249.431 488.538 249.242 488.071C249.053 487.603 248.956 487.103 248.958 486.598C248.96 486.093 249.06 485.593 249.252 485.128C249.445 484.662 249.727 484.239 250.081 483.883C250.435 483.528 250.855 483.246 251.317 483.055C251.778 482.864 252.273 482.767 252.772 482.769L373.282 483.21C374.289 483.214 375.253 483.622 375.962 484.345C376.671 485.068 377.068 486.047 377.064 487.066C377.06 488.085 376.657 489.061 375.943 489.779C375.228 490.497 374.261 490.899 373.255 490.895V490.895Z" fill="#E6E6E6"/>
<path d="M174.621 265.393L163.546 265.352C162.036 265.347 160.808 266.581 160.803 268.109L160.792 271.339C160.786 272.867 162.005 274.11 163.514 274.116L174.59 274.156C176.099 274.162 177.327 272.927 177.332 271.399L177.344 268.169C177.349 266.641 176.13 265.398 174.621 265.393Z" fill="#E6E6E6"/>
<path d="M264.794 265.722L253.719 265.681C252.21 265.676 250.982 266.91 250.976 268.438L250.965 271.668C250.959 273.196 252.178 274.439 253.688 274.445L264.763 274.485C266.272 274.491 267.5 273.257 267.506 271.729L267.517 268.498C267.523 266.971 266.304 265.727 264.794 265.722Z" fill="#E7D215"/>
<path d="M290.343 265.815L279.268 265.775C277.759 265.769 276.531 267.004 276.525 268.531L276.514 271.762C276.508 273.29 277.728 274.533 279.237 274.538L290.312 274.579C291.821 274.584 293.049 273.35 293.055 271.822L293.066 268.592C293.072 267.064 291.853 265.821 290.343 265.815Z" fill="#E6E6E6"/>
<path d="M240.269 264.901L188.076 264.711C186.566 264.705 185.339 265.939 185.333 267.467L185.322 270.698C185.316 272.226 186.535 273.469 188.045 273.474L240.238 273.665C241.748 273.67 242.975 272.436 242.981 270.908L242.992 267.678C242.998 266.15 241.779 264.907 240.269 264.901Z" fill="#E6E6E6"/>
<path d="M360.5 265.341L308.307 265.151C306.797 265.145 305.569 266.379 305.564 267.907L305.552 271.138C305.547 272.665 306.766 273.909 308.275 273.914L360.469 274.105C361.978 274.11 363.206 272.876 363.212 271.348L363.223 268.118C363.229 266.59 362.01 265.347 360.5 265.341Z" fill="#F2F2F2"/>
<path d="M174.874 285.172L163.799 285.132C162.29 285.126 161.062 286.36 161.056 287.888L161.045 291.119C161.039 292.647 162.258 293.89 163.768 293.895L174.843 293.936C176.352 293.941 177.58 292.707 177.586 291.179L177.597 287.949C177.603 286.421 176.383 285.178 174.874 285.172Z" fill="#E6E6E6"/>
<path d="M265.047 285.502L253.972 285.462C252.463 285.456 251.235 286.69 251.229 288.218L251.218 291.449C251.212 292.977 252.431 294.22 253.941 294.225L265.016 294.266C266.525 294.271 267.753 293.037 267.759 291.509L267.77 288.279C267.776 286.751 266.557 285.508 265.047 285.502Z" fill="#E7D215"/>
<path d="M290.596 285.596L279.521 285.555C278.012 285.55 276.784 286.784 276.778 288.312L276.767 291.542C276.761 293.07 277.98 294.313 279.49 294.319L290.565 294.359C292.074 294.365 293.302 293.13 293.308 291.603L293.319 288.372C293.325 286.844 292.106 285.601 290.596 285.596Z" fill="#E6E6E6"/>
<path d="M240.522 284.682L188.329 284.491C186.82 284.486 185.592 285.72 185.586 287.248L185.575 290.478C185.569 292.006 186.788 293.249 188.298 293.255L240.491 293.446C242 293.451 243.228 292.217 243.234 290.689L243.245 287.459C243.251 285.931 242.032 284.688 240.522 284.682Z" fill="#E6E6E6"/>
<path d="M360.757 285.12L308.563 284.929C307.054 284.924 305.826 286.158 305.82 287.686L305.809 290.916C305.803 292.444 307.022 293.687 308.532 293.693L360.726 293.883C362.235 293.889 363.463 292.655 363.468 291.127L363.48 287.896C363.485 286.368 362.266 285.125 360.757 285.12Z" fill="#F2F2F2"/>
<path d="M222.572 305.126L211.497 305.085C209.988 305.08 208.76 306.314 208.754 307.842L208.743 311.072C208.737 312.6 209.956 313.843 211.466 313.849L222.541 313.889C224.05 313.895 225.278 312.661 225.284 311.133L225.295 307.902C225.301 306.375 224.082 305.131 222.572 305.126Z" fill="#E6E6E6"/>
<path d="M312.746 305.456L301.67 305.415C300.161 305.41 298.933 306.644 298.928 308.172L298.916 311.402C298.911 312.93 300.13 314.173 301.639 314.179L312.714 314.219C314.224 314.225 315.452 312.99 315.457 311.462L315.469 308.232C315.474 306.704 314.255 305.461 312.746 305.456Z" fill="#E7D215"/>
<path d="M338.295 305.549L327.219 305.509C325.71 305.503 324.482 306.737 324.477 308.265L324.465 311.495C324.46 313.023 325.679 314.266 327.188 314.272L338.263 314.312C339.773 314.318 341.001 313.084 341.006 311.556L341.018 308.326C341.023 306.798 339.804 305.555 338.295 305.549Z" fill="#E6E6E6"/>
<path d="M288.221 304.636L236.027 304.445C234.518 304.439 233.29 305.673 233.284 307.201L233.273 310.432C233.267 311.96 234.486 313.203 235.996 313.208L288.189 313.399C289.699 313.405 290.927 312.17 290.932 310.642L290.944 307.412C290.949 305.884 289.73 304.641 288.221 304.636Z" fill="#E6E6E6"/>
<path d="M408.455 305.073L356.261 304.883C354.752 304.877 353.524 306.111 353.519 307.639L353.507 310.869C353.502 312.397 354.721 313.641 356.23 313.646L408.424 313.837C409.933 313.842 411.161 312.608 411.167 311.08L411.178 307.85C411.184 306.322 409.964 305.079 408.455 305.073Z" fill="#F2F2F2"/>
<path d="M174.301 362.921L163.225 362.88C161.716 362.875 160.488 364.109 160.483 365.637L160.471 368.867C160.466 370.395 161.685 371.638 163.194 371.644L174.269 371.684C175.779 371.69 177.007 370.456 177.012 368.928L177.024 365.697C177.029 364.169 175.81 362.926 174.301 362.921Z" fill="#E7D215"/>
<path d="M199.85 363.014L188.775 362.974C187.265 362.968 186.037 364.203 186.032 365.73L186.02 368.961C186.015 370.489 187.234 371.732 188.743 371.737L199.819 371.778C201.328 371.783 202.556 370.549 202.561 369.021L202.573 365.791C202.578 364.263 201.359 363.02 199.85 363.014Z" fill="#E6E6E6"/>
<path d="M270.002 364.001L217.808 363.81C216.299 363.805 215.071 365.039 215.065 366.567L215.054 369.797C215.048 371.325 216.267 372.568 217.777 372.574L269.97 372.765C271.48 372.77 272.708 371.536 272.713 370.008L272.725 366.778C272.73 365.25 271.511 364.007 270.002 364.001Z" fill="#F2F2F2"/>
<path d="M240.169 343.382L229.094 343.342C227.585 343.336 226.357 344.57 226.351 346.098L226.34 349.329C226.334 350.857 227.553 352.1 229.063 352.105L240.138 352.146C241.647 352.151 242.875 350.917 242.881 349.389L242.892 346.159C242.898 344.631 241.678 343.388 240.169 343.382Z" fill="#E7D215"/>
<path d="M265.722 343.475L254.646 343.434C253.137 343.429 251.909 344.663 251.904 346.191L251.892 349.421C251.887 350.949 253.106 352.192 254.615 352.198L265.69 352.238C267.2 352.244 268.428 351.01 268.433 349.482L268.445 346.251C268.45 344.723 267.231 343.48 265.722 343.475Z" fill="#E7D215"/>
<path d="M215.639 344.023L163.445 343.832C161.936 343.827 160.708 345.061 160.703 346.589L160.691 349.819C160.686 351.347 161.905 352.59 163.414 352.596L215.608 352.787C217.117 352.792 218.345 351.558 218.351 350.03L218.362 346.8C218.368 345.272 217.148 344.029 215.639 344.023Z" fill="#E6E6E6"/>
<path d="M335.874 344.461L283.68 344.271C282.17 344.265 280.942 345.499 280.937 347.027L280.925 350.258C280.92 351.786 282.139 353.029 283.648 353.034L335.842 353.225C337.352 353.23 338.579 351.996 338.585 350.468L338.596 347.238C338.602 345.71 337.383 344.467 335.874 344.461Z" fill="#F2F2F2"/>
<path d="M222.507 323.539L211.431 323.498C209.922 323.493 208.694 324.727 208.689 326.255L208.677 329.485C208.672 331.013 209.891 332.256 211.4 332.262L222.475 332.302C223.985 332.308 225.213 331.074 225.218 329.546L225.23 326.315C225.235 324.787 224.016 323.544 222.507 323.539Z" fill="#E6E6E6"/>
<path d="M312.68 323.868L301.604 323.828C300.095 323.822 298.867 325.056 298.862 326.584L298.85 329.815C298.845 331.342 300.064 332.586 301.573 332.591L312.648 332.632C314.158 332.637 315.386 331.403 315.391 329.875L315.403 326.645C315.408 325.117 314.189 323.874 312.68 323.868Z" fill="#E7D215"/>
<path d="M338.229 323.962L327.154 323.921C325.644 323.916 324.416 325.15 324.411 326.678L324.399 329.908C324.394 331.436 325.613 332.679 327.122 332.685L338.198 332.725C339.707 332.731 340.935 331.496 340.94 329.969L340.952 326.738C340.957 325.21 339.738 323.967 338.229 323.962Z" fill="#E6E6E6"/>
<path d="M288.15 324.509L235.956 324.318C234.447 324.313 233.219 325.547 233.213 327.075L233.202 330.305C233.196 331.833 234.416 333.076 235.925 333.082L288.119 333.272C289.628 333.278 290.856 332.044 290.861 330.516L290.873 327.285C290.878 325.757 289.659 324.514 288.15 324.509Z" fill="#E6E6E6"/>
<path d="M408.381 324.949L356.187 324.758C354.678 324.752 353.45 325.986 353.444 327.514L353.433 330.745C353.427 332.273 354.646 333.516 356.156 333.521L408.349 333.712C409.859 333.718 411.087 332.483 411.092 330.955L411.104 327.725C411.109 326.197 409.89 324.954 408.381 324.949Z" fill="#F2F2F2"/>
<path d="M193.077 331.443C195.34 332.114 197.712 330.802 198.376 328.511C199.039 326.22 197.743 323.818 195.48 323.146C193.217 322.475 190.844 323.787 190.181 326.078C189.517 328.369 190.814 330.771 193.077 331.443Z" fill="#E7D215"/>
<path d="M193.142 313.191C195.405 313.862 197.777 312.55 198.441 310.259C199.105 307.968 197.808 305.566 195.545 304.894C193.282 304.223 190.909 305.535 190.246 307.826C189.582 310.117 190.879 312.519 193.142 313.191Z" fill="#E7D215"/>
<path d="M292.991 78.701L263.575 78.5934C262.947 78.5886 262.347 78.3323 261.906 77.8805C261.465 77.4288 261.218 76.8185 261.221 76.1832C261.223 75.548 261.474 74.9395 261.918 74.491C262.363 74.0425 262.965 73.7906 263.592 73.7903L293.008 73.8979C293.32 73.8977 293.63 73.96 293.918 74.0812C294.207 74.2024 294.469 74.3801 294.689 74.604C294.91 74.8279 295.084 75.0937 295.203 75.3862C295.322 75.6786 295.382 75.9919 295.381 76.3081C295.38 76.6243 295.317 76.9371 295.196 77.2287C295.076 77.5203 294.899 77.7848 294.677 78.0071C294.455 78.2294 294.192 78.4052 293.902 78.5242C293.613 78.6433 293.303 78.7034 292.991 78.701V78.701Z" fill="white"/>
<path d="M307.648 78.1988C308.654 78.4974 309.708 77.914 310.003 76.8958C310.298 75.8776 309.722 74.8101 308.716 74.5115C307.71 74.213 306.656 74.7964 306.361 75.8146C306.066 76.8328 306.642 77.9003 307.648 78.1988Z" fill="white"/>
<path d="M266.062 545.126C262.857 545.114 259.727 544.14 257.069 542.328C254.41 540.515 252.342 537.946 251.126 534.943C249.91 531.941 249.601 528.641 250.238 525.461C250.874 522.281 252.428 519.363 254.703 517.077C256.978 514.791 259.871 513.239 263.017 512.617C266.163 511.996 269.42 512.332 272.377 513.585C275.334 514.838 277.857 516.95 279.628 519.654C281.399 522.359 282.338 525.534 282.327 528.779C282.311 533.13 280.589 537.297 277.539 540.362C274.489 543.428 270.36 545.141 266.062 545.126V545.126Z" fill="#E6E6E6"/>
<path d="M272.521 527.125L267.725 527.107L267.743 522.252C267.743 522.039 267.703 521.829 267.623 521.632C267.544 521.435 267.426 521.257 267.278 521.106C266.98 520.801 266.574 520.629 266.15 520.628C265.726 520.626 265.319 520.795 265.018 521.098C264.717 521.4 264.547 521.811 264.545 522.24L264.528 527.095L259.732 527.078C259.309 527.077 258.902 527.246 258.602 527.549C258.301 527.851 258.132 528.262 258.13 528.69C258.129 529.119 258.296 529.531 258.594 529.835C258.892 530.14 259.297 530.312 259.721 530.315L264.516 530.332L264.499 535.187C264.498 535.4 264.539 535.61 264.619 535.807C264.698 536.004 264.815 536.182 264.963 536.333C265.111 536.484 265.287 536.604 265.481 536.686C265.674 536.768 265.882 536.811 266.092 536.811C266.302 536.812 266.51 536.771 266.704 536.69C266.898 536.61 267.075 536.491 267.224 536.342C267.373 536.192 267.492 536.014 267.573 535.818C267.654 535.622 267.696 535.411 267.696 535.199L267.714 530.344L272.51 530.361C272.933 530.362 273.34 530.193 273.64 529.891C273.94 529.588 274.11 529.178 274.111 528.749C274.113 528.32 273.946 527.908 273.648 527.604C273.35 527.299 272.945 527.127 272.521 527.125V527.125Z" fill="white"/>
<path d="M313.476 545.299C310.271 545.287 307.141 544.314 304.482 542.501C301.824 540.689 299.756 538.119 298.54 535.117C297.324 532.114 297.015 528.814 297.651 525.634C298.288 522.454 299.842 519.536 302.117 517.25C304.391 514.964 307.284 513.412 310.43 512.79C313.576 512.169 316.833 512.506 319.79 513.758C322.747 515.011 325.271 517.123 327.042 519.827C328.813 522.532 329.752 525.707 329.74 528.952C329.725 533.303 328.003 537.47 324.952 540.536C321.902 543.601 317.774 545.315 313.476 545.299Z" fill="#E6E6E6"/>
<path d="M319.935 527.298L315.139 527.281L311.942 527.269L307.146 527.252C306.722 527.25 306.315 527.419 306.014 527.721C305.713 528.024 305.543 528.435 305.541 528.864C305.54 529.293 305.707 529.706 306.006 530.01C306.304 530.315 306.71 530.487 307.134 530.488L311.93 530.506L315.127 530.517L319.923 530.535C320.133 530.536 320.342 530.495 320.536 530.415C320.731 530.334 320.908 530.216 321.057 530.066C321.206 529.916 321.325 529.738 321.406 529.542C321.487 529.346 321.529 529.135 321.53 528.923C321.531 528.71 321.49 528.499 321.41 528.302C321.331 528.105 321.213 527.926 321.065 527.776C320.917 527.625 320.741 527.505 320.547 527.423C320.353 527.341 320.145 527.299 319.935 527.298Z" fill="white"/>
<path d="M360.889 545.472C357.684 545.461 354.554 544.487 351.896 542.675C349.237 540.862 347.169 538.292 345.953 535.29C344.737 532.288 344.428 528.988 345.065 525.807C345.701 522.627 347.255 519.71 349.53 517.423C351.805 515.137 354.698 513.585 357.844 512.964C360.99 512.342 364.247 512.679 367.204 513.932C370.161 515.184 372.684 517.296 374.455 520.001C376.226 522.705 377.165 525.881 377.154 529.126C377.138 533.477 375.416 537.643 372.366 540.709C369.316 543.775 365.187 545.488 360.889 545.472Z" fill="#E6E6E6"/>
<path d="M370.068 528.32L365.498 521.515C365.397 521.365 365.268 521.237 365.119 521.137C364.969 521.038 364.802 520.969 364.626 520.935C364.45 520.901 364.27 520.903 364.094 520.94C363.919 520.976 363.753 521.048 363.605 521.15C363.457 521.251 363.33 521.382 363.232 521.533C363.134 521.685 363.066 521.854 363.032 522.032C362.999 522.21 363 522.393 363.037 522.57C363.073 522.748 363.143 522.916 363.244 523.066L366.2 527.467L362.552 527.454L359.355 527.442L354.559 527.425C354.135 527.423 353.728 527.592 353.427 527.894C353.126 528.197 352.956 528.608 352.955 529.037C352.953 529.466 353.12 529.879 353.419 530.183C353.718 530.488 354.124 530.66 354.548 530.661L359.343 530.679L362.541 530.69L366.334 530.704L363.2 535.3C362.996 535.601 362.918 535.971 362.983 536.331C363.049 536.69 363.252 537.008 363.549 537.216C363.846 537.424 364.212 537.503 364.567 537.438C364.922 537.373 365.237 537.167 365.443 536.867L370.061 530.095C370.212 529.824 370.292 529.519 370.293 529.208C370.294 528.898 370.216 528.592 370.068 528.32L370.068 528.32Z" fill="white"/>
</svg>
