<svg width="36" height="36" viewBox="0 0 36 36" fill="none" xmlns="http://www.w3.org/2000/svg">
<path d="M35.4645 7.40537C34.212 7.96037 32.8665 8.33537 31.452 8.50487C32.9115 7.63156 34.0034 6.25707 34.524 4.63787C33.1528 5.45236 31.652 6.02566 30.087 6.33287C29.0346 5.20917 27.6406 4.46436 26.1215 4.21408C24.6024 3.9638 23.0432 4.22206 21.6859 4.94875C20.3286 5.67544 19.2492 6.82991 18.6152 8.23293C17.9813 9.63594 17.8283 11.209 18.18 12.7079C15.4015 12.5684 12.6835 11.8462 10.2022 10.5882C7.72085 9.33026 5.53178 7.56461 3.77702 5.40587C3.17702 6.44087 2.83202 7.64087 2.83202 8.91887C2.83135 10.0694 3.11467 11.2022 3.65684 12.217C4.199 13.2317 4.98326 14.0969 5.94002 14.7359C4.83043 14.7006 3.74533 14.4007 2.77502 13.8614V13.9514C2.77491 15.565 3.33307 17.1289 4.35479 18.3779C5.37652 19.6268 6.79887 20.4838 8.38052 20.8034C7.35119 21.0819 6.27202 21.123 5.22452 20.9234C5.67076 22.3118 6.54001 23.5259 7.71057 24.3958C8.88113 25.2656 10.2944 25.7476 11.7525 25.7744C9.27727 27.7175 6.22035 28.7715 3.07352 28.7669C2.51609 28.767 1.95913 28.7345 1.40552 28.6694C4.59973 30.7231 8.31803 31.8131 12.1155 31.8089C24.9705 31.8089 31.998 21.1619 31.998 11.9279C31.998 11.6279 31.9905 11.3249 31.977 11.0249C33.344 10.0363 34.5239 8.81221 35.4615 7.40987L35.4645 7.40537Z" fill="white"/>
</svg>
