<svg width="24" height="24" viewBox="0 0 24 24" fill="none" xmlns="http://www.w3.org/2000/svg">
<g clip-path="url(#clip0_126_131)">
<path d="M15.8242 15.0705C17.184 15.0705 17.184 17.106 15.8242 17.106C14.469 17.106 14.469 15.0705 15.8242 15.0705ZM21.3285 1.1093C22.6837 1.1093 22.6837 3.1448 21.3285 3.1448C19.9687 3.1448 19.9687 1.1093 21.3285 1.1093ZM3.3202 3.1058H19.4377C19.6607 3.53733 20.0246 3.87967 20.4689 4.07603C20.9132 4.27239 21.4113 4.31098 21.8806 4.1854C22.3498 4.05982 22.762 3.77761 23.0489 3.38558C23.3357 2.99355 23.48 2.51524 23.4577 2.02999C23.4353 1.54473 23.2478 1.08168 22.9262 0.71762C22.6046 0.353561 22.1682 0.110367 21.6894 0.0283704C21.2106 -0.0536264 20.7182 0.0304998 20.2938 0.266798C19.8694 0.503096 19.5385 0.877369 19.356 1.32755H3.32095C1.7662 1.32755 0.543701 2.51105 0.543701 4.0193V21.1755C0.543701 22.707 1.8172 24 3.32095 24H20.4772C21.9892 24 23.2155 22.734 23.2155 21.1755V10.9958C23.2155 9.4643 21.9892 8.21855 20.4772 8.21855H10.3012C8.74645 8.21855 7.43395 9.49205 7.43395 10.9958V14.1953C7.43395 15.6795 8.71945 16.887 10.3012 16.887H13.8562C14.0146 17.2795 14.2866 17.6156 14.6374 17.8523C14.9882 18.089 15.4018 18.2154 15.825 18.2153C16.3897 18.2153 16.9312 17.991 17.3306 17.5917C17.7299 17.1923 17.9542 16.6508 17.9542 16.086C17.9542 15.5213 17.7299 14.9798 17.3306 14.5804C16.9312 14.1811 16.3897 13.9568 15.825 13.9568C15.435 13.9573 15.0528 14.0651 14.7199 14.2683C14.3871 14.4714 14.1166 14.7622 13.938 15.1088H10.3012C9.7777 15.1088 9.21145 14.7608 9.21145 14.1945V10.995C9.21145 10.4715 9.7312 9.9953 10.3012 9.9953H20.4772C21.0165 9.9953 21.438 10.437 21.438 10.995V21.1748C21.438 21.741 20.9962 22.2218 20.4772 22.2218H3.32095C2.78995 22.2218 2.3212 21.7298 2.3212 21.1748V4.01855C2.3212 3.4988 2.7547 3.10805 3.32095 3.10805L3.3202 3.1058Z" fill="white"/>
</g>
<defs>
<clipPath id="clip0_126_131">
<rect width="24" height="24" fill="white"/>
</clipPath>
</defs>
</svg>
